<svg viewBox="0 0 931 471" version="1.1" xmlns="http://www.w3.org/2000/svg" xmlns:xlink="http://www.w3.org/1999/xlink"> <g id="Design-Elements" stroke="none" stroke-width="1" fill="none" fill-rule="evenodd"> <g id="Home---Desktop-Large"  transform="translate(-249.000000, -152.000000)"> <g id="Imported-Layers-2" transform="translate(251.000000, 154.000000)"> <g id="Avatar" transform="translate(864.000000, 224.500000) scale(-1, 1) translate(-864.000000, -224.500000) translate(832.000000, 193.000000)" stroke="#17395C" stroke-width="3" stroke-linecap="round" stroke-linejoin="round"> <path d="M0.5,31.5 C0.5,48.897 14.603,63 32,63 C49.397,63 63.5,48.897 63.5,31.5 C63.5,14.103 49.397,0 32,0 C14.603,0 0.5,14.103 0.5,31.5 L0.5,31.5 Z" id="Path" fill="#F5F5F5"></path> <path d="M20.75,29.25 C20.75,35.463 25.787,40.5 32,40.5 C38.213,40.5 43.25,35.463 43.25,29.25 C43.25,23.037 38.213,18 32,18 C25.787,18 20.75,23.037 20.75,29.25 L20.75,29.25 Z" id="Stroke-1" fill="#59AFE1"></path> <path d="M50,57.375 C44.986,60.907 38.754,63 32,63 C25.246,63 19.014,60.907 14,57.375 C14,48.055 22.059,40.5 32,40.5 C41.941,40.5 50,48.055 50,57.375 L50,57.375 Z" id="Stroke-2" fill="#59AFE1"></path> <path d="M43.013,31.549 C35.33,20.482 31.939,29.253 28.699,20.882 C30.024,27.6 24.631,30.083 20.753,29.296 C20.752,29.28 20.75,29.265 20.75,29.25 C20.75,23.037 25.787,18 32,18 C38.213,18 43.25,23.037 43.25,29.25 C43.25,30.038 43.167,30.807 43.013,31.549 L43.013,31.549 Z" id="Path" fill="#3B7FC4"></path> </g> <g id="Lines" transform="translate(23.000000, 49.000000)" stroke="#59AFE1" stroke-width="3" stroke-linecap="round" stroke-linejoin="round"> <path d="M332.5,162 L323.5,153 L332.5,144 M247,189.001 L418,189.001 M8.5,242.998 L8.5,202.5 C8.5,192.559 16.559,189 26.5,189 M17.5,234 L8.5,243 L-0.5,234 M445,234 L445,351 M463,27 L463,279 M517,18 L517,144 M517,180 L517,351 C517,360.941 525.059,369 535,369 L544,369 M535,360 L544,369 L535,378 M409,18 L400,9 L409,0 M634,54 L625,45 L634,36 M715,0 L724,9 L715,18 M508,189 L517,180 L526,189 M454,324 L463,315 L472,324 M454,189 L445,198 L436,189 M490,81 L481,90 L472,81" id="Stroke-7"></path> <path d="M445,198 L445,27 C445,17.059 453.059,9 463,9 C472.941,9 481,17.059 481,27 L481,90" id="Stroke-10"></path> <path d="M517,18 C517,13.029 521.03,9 526,9" id="Stroke-12"></path> <path d="M652,261 L652,360 M670,72 L670,360 M706,180 L706.001,342.003 M562,62.998 L661,62.998 M562,45.002 L589,45.002 M526,9 L724,9 M562,63 C557.03,63 553,58.971 553,54 C553,49.029 557.03,45 562,45 M841,135 L841,116.999 L841,117 C841,107.059 832.941,99 823,99 L823,99.001 L751,99.001 L751,99 C746.03,99 742,103.029 742,108 L742,270 M661,63 C665.971,63 670,67.029 670,72 M706,143.997 L706,36 C706,31.029 710.03,27 715,27 L715,26.999 L832,27 C836.971,27 841,22.971 841,18 C841,13.029 836.971,9 832,9 L760,9 M652,225 L652,108 C652,103.029 647.971,99 643,99 L643,99.001 L562,99.001 L562,99 C557.03,99 553,94.971 553,90 C553,85.029 557.03,81 562,81 L751,81 M850,126 L841,135 L832,126 M715,134.997 L706,143.997 L697,134.997" id="Stroke-19"></path> <path d="M733,315 L742,306 L751,315 M643,270 L652,261 L661,270" id="Stroke-22"></path> <path d="M463,315 L463,351 C463,360.941 454.941,369 445,369 C435.059,369 427,360.941 427,351 L427,198 C427,193.029 422.971,189 418,189 M742,306 L742,342 C742,356.912 729.912,369 715,369 C700.089,369 688,356.912 688,342 L688,36 C688,31.029 683.971,27 679,27 L679,27.001 L508,27.001 L508,27 C503.03,27 499,31.029 499,36 L499,360 C499,364.971 494.971,369 490,369 C485.029,369 481,364.971 481,360 L481,126 M670,360 C670,364.971 665.971,369 661,369 C656.029,369 652,364.971 652,360 M706,342 C706,346.971 710.029,351 715,351 C719.971,351 724,346.971 724,342 L724,72 C724,67.029 728.03,63 733,63 L733,62.998 L823,62.998 M625,45.001 L823,45 C832.941,45 841,53.059 841,63 C841,72.941 832.941,81 823,81 L751,81" id="Stroke-31"></path> <path d="M373.316,266.895 C344.275,327.302 282.508,369 211.001,369 C117.39,369 40.891,298.219 31.89,207.05" id="Path"></path> <path d="M323.5,153 L382,153 C386.971,153 391,157.029 391,162 L391,189 C391,204.201 389.111,218.961 385.561,233.06" id="Path"></path> <path d="M206.568,27.068 C208.197,27.024 209.829,26.996 211.469,27.001 C257.966,27.132 299.841,46.865 329.302,78.358 C332.863,82.165 332.417,88.245 328.289,91.529 C324.582,94.476 319.169,93.854 315.926,90.403 C289.663,62.459 252.375,45 211,45 C132.136,45 68.079,108.398 67.014,187.009 C65.923,267.461 130.066,332.74 210.525,332.999 C284.171,333.237 345.005,278.186 353.882,207" id="Path"></path> <path d="M218.758,350.817 C298.61,347.052 363.323,285.471 372,207 L247,207 C237.059,207 229,198.941 229,189 C229,179.059 237.059,171 247,171 L418,171.001 L418,171 C422.971,171 427,166.971 427,162 L427,27 C427,17.059 418.941,9 409,9 L409,8.999 L400,8.999" id="Path"></path> <path d="M170.719,32.11 C101.369,50.021 49.567,112.997 49.004,187.754 C48.4,268.207 106.448,335.206 182.936,348.565" id="Path"></path> <path d="M161.959,113.673 C176.679,104.036 194.331,98.585 213.146,99.025 C238.804,99.626 261.804,110.964 277.829,128.72 C280.238,131.39 285.045,132.877 288.533,132.005 C294.497,130.514 296.895,123.244 292.885,118.584 C273.08,95.573 243.743,81 211,81 C150.841,81 102.171,130.187 103.011,190.538 C103.82,248.707 151.294,296.18 209.462,296.989 C263.661,297.743 308.855,258.567 317.507,207 M136.415,138.811 C126.923,152.823 121.261,169.627 121.009,187.719 C120.31,238.012 160.868,279 211,279 C247.905,279 279.615,256.785 293.504,225 L247,225 C227.352,225 211.381,209.26 211.007,189.702 C210.621,169.52 227.525,153 247.711,153 L287.5,153 M122.042,278.225 C144.833,300.948 176.274,315 211,315 C274.476,315 326.979,268.06 335.715,207 M100.513,249.6 C90.492,231.372 84.846,210.399 85.003,188.092 C85.496,118.157 143.634,61.633 213.558,63.026 C248.991,63.731 280.835,79.064 303.303,103.234 C311.389,111.933 324.151,114.424 334.774,109.113 C351.974,100.513 354.805,79.389 343.102,66.748 C310.225,31.234 263.212,9 211,9 C117.62,9 40.853,80.109 31.882,171.13 M215.5,36 L206.5,27 L215.5,18" id="Stroke-41"></path> <path d="M124.026,141.71 L136.419,138.81 L139.32,151.203" id="Stroke-44"></path> <path d="M41.824,163.183 L31.883,171.132 L23.934,161.191" id="Stroke-47"></path> <path d="M122.663,290.937 L122.024,278.225 L134.736,277.587" id="Stroke-50"></path> <path d="M228.144,359.414 L218.757,350.819 L227.352,341.432" id="Stroke-53"></path> <path d="M361.144,270.615 L373.315,266.892 L377.039,279.063" id="Stroke-56"></path> </g> <g id="Respository" transform="translate(792.000000, 364.000000)"> <path d="M0,45 L0,9 C0,4.029 12.089,0 27,0 C41.912,0 54,4.029 54,9 L54,45 C54,49.971 41.912,54 27,54 C12.089,54 0,49.971 0,45" id="Fill-32" fill="#59AFE1"></path> <path d="M54,9 C54,13.971 41.912,18 27,18 C12.089,18 0,13.971 0,9 C0,4.029 12.089,0 27,0 C41.912,0 54,4.029 54,9 L54,9 Z M54,27 C54,31.971 41.912,36 27,36 C12.089,36 0,31.971 0,27 M0,9 L0,27 L0,9 Z M54,9 L54,27 L54,9 Z M54,45 C54,49.971 41.912,54 27,54 C12.089,54 0,49.971 0,45 M0,27 L0,45 L0,27 Z M54,27 L54,45 L54,27 Z" id="Stroke-33" stroke="#17395C" stroke-width="3" stroke-linecap="round" stroke-linejoin="round"></path> </g> <g id="Cloud" transform="translate(533.000000, 264.000000)"> <path d="M0,31.5 L0,40.5 L54,40.5 C58.971,40.5 63,36.471 63,31.5 C63,26.529 58.971,22.5 54,22.5 C54,17.529 49.971,13.5 45,13.5 C45,6.044 38.956,0 31.5,0 C24.044,0 18,6.044 18,13.5 C8.059,13.5 0,21.559 0,31.5 L0,31.5 Z" id="Fill-34" fill="#F5F5F5"></path> <path d="M0,31.5 L0,40.5 L54,40.5 C58.971,40.5 63,36.471 63,31.5 C63,26.529 58.971,22.5 54,22.5 C54,17.529 49.971,13.5 45,13.5 C45,6.044 38.956,0 31.5,0 C24.044,0 18,6.044 18,13.5 C8.059,13.5 0,21.559 0,31.5 L0,31.5 Z" id="Stroke-35" stroke="#17395C" stroke-width="3" stroke-linecap="round" stroke-linejoin="round"></path> </g> <g id="Cloud" transform="translate(846.000000, 76.000000)"> <path d="M0,31.5 L0,40.5 L54,40.5 C58.971,40.5 63,36.471 63,31.5 C63,26.529 58.971,22.5 54,22.5 C54,17.529 49.971,13.5 45,13.5 C45,6.044 38.956,0 31.5,0 C24.044,0 18,6.044 18,13.5 C8.059,13.5 0,21.559 0,31.5" id="Fill-37" fill="#F5F5F5"></path> <path d="M54,40 L0,40" id="Path" stroke="#17395C" stroke-width="3" stroke-linecap="round" stroke-linejoin="round"></path> <path d="M63,31.5 C63,36.471 58.971,40.5 54,40.5" id="Path" stroke="#17395C" stroke-width="3" stroke-linecap="round" stroke-linejoin="round"></path> <path d="M18,13.5 C18,6.044 24.044,0 31.5,0 C38.956,0 45,6.044 45,13.5 C49.971,13.5 54,17.529 54,22.5 C58.971,22.5 63,26.529 63,31.5" id="Path" stroke="#17395C" stroke-width="3" stroke-linecap="round" stroke-linejoin="round"></path> <path d="M0,31.5 C0,21.559 8.059,13.5 18,13.5" id="Path" stroke="#17395C" stroke-width="3" stroke-linecap="round" stroke-linejoin="round"></path> <path d="M0,31.5 L0,40.5" id="Path" stroke="#17395C" stroke-width="3" stroke-linecap="round" stroke-linejoin="round"></path> </g> <g id="Stars" transform="translate(9.000000, 0.000000)" stroke="#FFFFFF" stroke-width="3" stroke-linecap="round" stroke-linejoin="round"> <path d="M504,-0.5 L504,17.5 M495,8.5 L513,8.5 M427.5,449.5 L427.5,467.5 M418.5,458.5 L436.5,458.5 M193.5,251.5 L193.5,269.5 M184.5,260.5 L202.5,260.5 M810,274 L810,292 M801,283 L819,283 M45,404.5 L45,422.5 M36,413.5 L54,413.5 M9,143.5 L9,161.5 M0,152.5 L18,152.5 M657,22 L644.272,34.728 M644.272,22 L657,34.728 M918,337.772 L905.272,350.5 M905.272,337.772 L918,350.5 M165.728,27.272 L153,40 M153,27.272 L165.728,40 M628.228,203.5 L615.5,216.228 M615.5,203.5 L628.228,216.228" id="Stroke-38"></path> </g> <g id="Dots" transform="translate(45.000000, 49.000000)" stroke="#59AFE1" stroke-width="3" fill="#17395C" stroke-linecap="round" stroke-linejoin="round"> <path d="M367.244,250.383 C367.244,255.354 363.214,259.383 358.244,259.383 C353.273,259.383 349.244,255.354 349.244,250.383 C349.244,245.413 353.273,241.383 358.244,241.383 C363.214,241.383 367.244,245.413 367.244,250.383 L367.244,250.383 Z" id="Stroke-6"></path> <path d="M504,162 C504,166.971 499.971,171 495,171 C490.029,171 486,166.971 486,162 C486,157.029 490.029,153 495,153 C499.971,153 504,157.029 504,162 L504,162 Z" id="Stroke-9"></path> <path d="M450,297 C450,301.971 445.971,306 441,306 C436.029,306 432,301.971 432,297 C432,292.029 436.029,288 441,288 C445.971,288 450,292.029 450,297 L450,297 Z" id="Stroke-14"></path> <path d="M468,108 C468,112.971 463.971,117 459,117 C454.029,117 450,112.971 450,108 C450,103.029 454.029,99 459,99 C463.971,99 468,103.029 468,108 L468,108 Z" id="Stroke-16"></path> <path d="M432,216 C432,220.971 427.971,225 423,225 C418.029,225 414,220.971 414,216 C414,211.029 418.029,207 423,207 C427.971,207 432,211.029 432,216 L432,216 Z" id="Stroke-18"></path> <path d="M639,243 C639,247.971 634.971,252 630,252 C625.03,252 621,247.971 621,243 C621,238.029 625.03,234 630,234 C634.971,234 639,238.029 639,243 L639,243 Z" id="Stroke-21"></path> <path d="M729,288 C729,292.971 724.971,297 720,297 C715.03,297 711,292.971 711,288 C711,283.029 715.03,279 720,279 C724.971,279 729,283.029 729,288 L729,288 Z" id="Stroke-24"></path> <path d="M693,161.997 C693,166.968 688.971,170.997 684,170.997 C679.029,170.997 675,166.968 675,161.997 C675,157.026 679.029,152.997 684,152.997 C688.971,152.997 693,157.026 693,161.997 L693,161.997 Z" id="Stroke-26"></path> <path d="M594,45 C594,49.971 589.971,54 585,54 C580.029,54 576,49.971 576,45 C576,40.029 580.029,36 585,36 C589.971,36 594,40.029 594,45 L594,45 Z" id="Stroke-28"></path> <path d="M729,9 C729,13.971 724.971,18 720,18 C715.029,18 711,13.971 711,9 C711,4.029 715.029,0 720,0 C724.971,0 729,4.029 729,9 L729,9 Z" id="Stroke-30"></path> <path d="M292.5,153 C292.5,157.971 288.471,162 283.5,162 C278.529,162 274.5,157.971 274.5,153 C274.5,148.029 278.529,144 283.5,144 C288.471,144 292.5,148.029 292.5,153 L292.5,153 Z" id="Stroke-40"></path> <path d="M175.621,28.57 C175.621,33.541 171.592,37.57 166.621,37.57 C161.651,37.57 157.621,33.541 157.621,28.57 C157.621,23.6 161.651,19.57 166.621,19.57 C171.592,19.57 175.621,23.6 175.621,28.57 L175.621,28.57 Z" id="Stroke-43"></path> <path d="M134.857,125.077 C134.857,130.048 130.828,134.077 125.857,134.077 C120.887,134.077 116.857,130.048 116.857,125.077 C116.857,120.106 120.887,116.077 125.857,116.077 C130.828,116.077 134.857,120.106 134.857,125.077 L134.857,125.077 Z" id="Stroke-46"></path> <path d="M18,189 C18,193.971 13.971,198 9,198 C4.029,198 0,193.971 0,189 C0,184.029 4.029,180 9,180 C13.971,180 18,184.029 18,189 L18,189 Z" id="Stroke-49"></path> <path d="M97.295,264.755 C97.295,269.725 93.266,273.754 88.295,273.754 C83.325,273.754 79.295,269.725 79.295,264.755 C79.295,259.784 83.325,255.755 88.295,255.755 C93.266,255.755 97.295,259.784 97.295,264.755 L97.295,264.755 Z" id="Stroke-52"></path> <path d="M187.863,350.71 C187.863,355.681 183.833,359.71 178.863,359.71 C173.892,359.71 169.863,355.681 169.863,350.71 C169.863,345.74 173.892,341.71 178.863,341.71 C183.833,341.71 187.863,345.74 187.863,350.71 L187.863,350.71 Z" id="Stroke-55"></path> </g> <g id="Respository" transform="translate(342.000000, 346.000000)"> <path d="M0,63 L0,9 C0,4.029 12.089,0 27,0 C41.912,0 54,4.029 54,9 L54,63 C54,67.971 41.912,72 27,72 C12.089,72 0,67.971 0,63 L0,63 Z" id="Fill-57" fill="#59AFE1"></path> <path d="M54,9 C54,13.971 41.912,18 27,18 C12.089,18 0,13.971 0,9 C0,4.029 12.089,0 27,0 C41.912,0 54,4.029 54,9 L54,9 Z M54,27 C54,31.971 41.912,36 27,36 C12.089,36 0,31.971 0,27 M0,9 L0,27 L0,9 Z M54,9 L54,27 L54,9 Z M54,45 C54,49.971 41.912,54 27,54 C12.089,54 0,49.971 0,45 M0,27 L0,45 L0,27 Z M54,27 L54,45 L54,27 Z M54,63 C54,67.971 41.912,72 27,72 C12.089,72 0,67.971 0,63 M0,45 L0,63 L0,45 Z M54,45 L54,63 L54,45 Z" id="Stroke-59" stroke="#17395C" stroke-width="3" stroke-linecap="round" stroke-linejoin="round"></path> </g> <g id="Avatar" transform="translate(0.000000, 301.000000)" stroke="#17395C" stroke-width="3" stroke-linecap="round" stroke-linejoin="round"> <path d="M63,31.5 C63,48.897 48.897,63 31.5,63 C14.103,63 0,48.897 0,31.5 C0,14.103 14.103,0 31.5,0 C48.897,0 63,14.103 63,31.5 L63,31.5 Z" id="Path" fill="#F5F5F5"></path> <path d="M39.419,42.239 L45.992,41.375 C45.992,41.375 43.292,34.681 42.711,28.244 L42.699,28.244 C42.729,28.576 42.75,28.91 42.75,29.25 C42.75,35.463 37.713,40.5 31.5,40.5 C34.346,40.5 37.027,41.136 39.419,42.239 L39.419,42.239 Z" id="Path" fill="#3B7FC4"></path> <path d="M23.577,42.24 C25.97,41.137 28.653,40.5 31.5,40.5 C25.287,40.5 20.25,35.463 20.25,29.25 C20.25,28.91 20.271,28.576 20.301,28.244 L20.282,28.244 C19.701,34.681 17,41.375 17,41.375 L23.577,42.24 L23.577,42.24 Z" id="Path" fill="#3B7FC4"></path> <path d="M13.5,57.375 C18.514,60.906 24.746,63 31.5,63 C38.254,63 44.486,60.906 49.5,57.375 C49.5,48.055 41.441,40.5 31.5,40.5 C21.559,40.5 13.5,48.055 13.5,57.375 L13.5,57.375 Z" id="Path" fill="#59AFE1"></path> <path d="M42.75,29.25 C42.75,35.463 37.713,40.5 31.5,40.5 C25.287,40.5 20.25,35.463 20.25,29.25 C20.25,23.037 25.287,18 31.5,18 C37.713,18 42.75,23.037 42.75,29.25 L42.75,29.25 Z" id="Path" fill="#59AFE1"></path> <path d="M37.788,19.92 C35.993,18.708 33.829,18 31.5,18 C27.824,18 24.57,19.771 22.517,22.498 C24.57,25.224 27.824,26.995 31.5,26.995 C33.829,26.995 35.993,26.287 37.788,25.075 C38.826,24.374 39.73,23.497 40.482,22.499 C39.73,21.501 38.826,20.621 37.788,19.92 L37.788,19.92 Z" id="Path" fill="#3B7FC4"></path> </g> <g id="Avatar" transform="translate(576.000000, 386.000000)" stroke="#17395C" stroke-width="3" stroke-linecap="round" stroke-linejoin="round"> <path d="M63,32 C63,49.397 48.897,63.5 31.5,63.5 C14.103,63.5 0,49.397 0,32 C0,14.603 14.103,0.5 31.5,0.5 C48.897,0.5 63,14.603 63,32 L63,32 Z" id="Stroke-4" fill="#F5F5F5"></path> <path d="M39.419,42.739 L47.242,39.875 C47.242,39.875 43.292,35.181 42.711,28.744 L42.699,28.744 C42.729,29.076 42.75,29.41 42.75,29.75 C42.75,35.963 37.713,41 31.5,41 C34.346,41 37.027,41.636 39.419,42.739 L39.419,42.739 Z" id="Path" fill="#3B7FC4"></path> <path d="M23.577,42.74 C25.97,41.637 28.653,41 31.5,41 C25.287,41 20.25,35.963 20.25,29.75 C20.25,29.41 20.271,29.076 20.301,28.744 L20.282,28.744 C19.701,35.181 15.75,39.875 15.75,39.875 L23.577,42.74 L23.577,42.74 Z" id="Path" fill="#3B7FC4"></path> <path d="M42.75,29.75 C42.75,35.963 37.713,41 31.5,41 C25.287,41 20.25,35.963 20.25,29.75 C20.25,23.537 25.287,18.5 31.5,18.5 C37.713,18.5 42.75,23.537 42.75,29.75 L42.75,29.75 Z" id="Path" fill="#59AFE1"></path> <path d="M13.5,57.875 C18.514,61.406 24.746,63.5 31.5,63.5 C38.254,63.5 44.486,61.406 49.5,57.875 C49.5,48.555 41.441,41 31.5,41 C21.559,41 13.5,48.555 13.5,57.875 L13.5,57.875 Z" id="Path" fill="#59AFE1"></path> <path d="M42.513,32.049 C34.83,20.982 31.439,29.753 28.199,21.382 C29.524,28.1 24.131,30.583 20.253,29.796 C20.252,29.78 20.25,29.765 20.25,29.75 C20.25,23.537 25.287,18.5 31.5,18.5 C37.713,18.5 42.75,23.537 42.75,29.75 C42.75,30.538 42.667,31.307 42.513,32.049 L42.513,32.049 Z" id="Path" fill="#3B7FC4"></path> </g> <g id="Cloud" transform="translate(49.000000, 81.000000)"> <path d="M0,31.5 L0,40.5 L54,40.5 C58.971,40.5 63,36.471 63,31.5 C63,26.529 58.971,22.5 54,22.5 C54,17.529 49.971,13.5 45,13.5 C45,6.044 38.956,0 31.5,0 C24.044,0 18,6.044 18,13.5 C8.059,13.5 0,21.559 0,31.5 L0,31.5 Z" id="Fill-34" fill="#F5F5F5"></path> <path d="M0,31.5 L0,40.5 L54,40.5 C58.971,40.5 63,36.471 63,31.5 C63,26.529 58.971,22.5 54,22.5 C54,17.529 49.971,13.5 45,13.5 C45,6.044 38.956,0 31.5,0 C24.044,0 18,6.044 18,13.5 C8.059,13.5 0,21.559 0,31.5 L0,31.5 Z" id="Stroke-35" stroke="#17395C" stroke-width="3" stroke-linecap="round" stroke-linejoin="round"></path> </g> <g id="Avatar" transform="translate(351.000000, 26.000000)" stroke="#17395C" stroke-width="3" stroke-linecap="round" stroke-linejoin="round"> <path d="M31.5,63.5 C48.897,63.5 63,49.397 63,32 C63,14.603 48.897,0.5 31.5,0.5 C14.103,0.5 0,14.603 0,32 C0,49.397 14.103,63.5 31.5,63.5 Z" id="Path" fill="#F5F5F5"></path> <path d="M20.25,29.75 C20.25,35.963 25.287,41 31.5,41 C37.713,41 42.75,35.963 42.75,29.75 C42.75,23.537 37.713,18.5 31.5,18.5 C25.287,18.5 20.25,23.537 20.25,29.75 L20.25,29.75 Z" id="Stroke-63" fill="#59AFE1"></path> <path d="M49.5,57.875 C44.486,61.407 38.254,63.5 31.5,63.5 C24.746,63.5 18.514,61.407 13.5,57.875 C13.5,48.555 21.559,41 31.5,41 C41.441,41 49.5,48.555 49.5,57.875 L49.5,57.875 Z" id="Stroke-64" fill="#59AFE1"></path> <path d="M42.513,32.049 C34.83,20.982 31.439,29.753 28.199,21.382 C29.524,28.1 24.131,30.583 20.253,29.796 C20.252,29.78 20.25,29.765 20.25,29.75 C20.25,23.537 25.287,18.5 31.5,18.5 C37.713,18.5 42.75,23.537 42.75,29.75 C42.75,30.538 42.667,31.307 42.513,32.049 L42.513,32.049 Z" id="Path" fill="#3B7FC4"></path> </g> <g id="Paper" transform="translate(126.000000, 369.000000)"> <path d="M36,44.5 L0,44.5 L0,13 L13.5,-0.5 L36,-0.5 L36,44.5" id="Fill-66" fill="#F5F5F5"></path> <path d="M13.5,-0.5 L13.5,13 L0,13 L13.5,-0.5" id="Fill-67" fill="#59AFE1"></path> <path d="M13.5,-0.5 L13.5,13 L0,13 L13.5,-0.5 Z M36,44.5 L0,44.5 L0,13 L13.5,-0.5 L36,-0.5 L36,44.5 L36,44.5 Z" id="Stroke-68" stroke="#17395C" stroke-width="3" stroke-linecap="round" stroke-linejoin="round"></path> </g> </g> </g> </g> </svg>
